/vscmnt/brussel_pixiu_data/_data_brussel/112/vsc11236/PredSimResults/SUBJ09opt3D/trackIG/worker_08.mot
version=1
nRows=5
nColumns=50
inDegrees=yes
endheader
                time	         pelvis_tilt	         pelvis_list	     pelvis_rotation	           pelvis_tx	           pelvis_ty	           pelvis_tz	       hip_flexion_r	     hip_adduction_r	      hip_rotation_r	        knee_angle_r	       ankle_angle_r	         mtp_angle_r	       hip_flexion_l	     hip_adduction_l	      hip_rotation_l	        knee_angle_l	       ankle_angle_l	         mtp_angle_l	    lumbar_extension	      lumbar_bending	     lumbar_rotation	 ercspn_r/activation	 intobl_r/activation	 extobl_r/activation	    abd_r/activation	    add_r/activation	hamstrings_r/activation	bifemsh_r/activation	glut_max_r/activation	iliopsoas_r/activation	rect_fem_r/activation	  vasti_r/activation	gastroc_r/activation	 soleus_r/activation	tib_ant_r/activation	 ercspn_l/activation	 intobl_l/activation	 extobl_l/activation	    abd_l/activation	    add_l/activation	hamstrings_l/activation	bifemsh_l/activation	glut_max_l/activation	iliopsoas_l/activation	rect_fem_l/activation	  vasti_l/activation	gastroc_l/activation	 soleus_l/activation	tib_ant_l/activation	
          0.00000000	         -4.57851092	         -1.16519103	          8.73930028	          0.00000000	          0.98616020	         -0.00330456	         29.81503607	         -1.63599039	         -8.95837627	         -6.67873150	          4.53692542	          0.24919979	        -14.82860040	         -2.71628036	         -3.87074583	         -9.61730398	          2.76612002	         38.21003521	        -13.30887927	         -0.69001823	         -6.70606609	          0.03443013	          0.14787373	          0.02550681	          0.01091034	          0.22562013	          0.06996930	          0.14345838	          0.10464977	          0.13343647	          0.00999999	          0.00999999	          0.01451195	          0.00999999	          0.33571487	          0.04588714	          0.00999999	          0.00999999	          0.02536963	          0.01204658	          0.02058761	          0.18798522	          0.01019842	          0.01000005	          0.00999999	          0.00999999	          0.31421082	          0.20593477	          0.01214990	
          0.01227934	         -4.59026362	         -1.30563046	          8.74300716	          0.02069750	          0.98386590	         -0.00266670	         29.74877428	         -1.45340692	         -9.10630301	         -8.61540450	          4.12043253	          0.20956656	        -15.45939342	         -3.09161870	         -4.31194240	        -10.46388842	          1.51093216	         39.82947357	        -12.78283752	         -0.24136022	         -6.91733339	          0.02858089	          0.12275187	          0.02117352	          0.08460528	          0.18729017	          0.06915886	          0.11908663	          0.14723712	          0.11076732	          0.00999999	          0.00999999	          0.01204656	          0.01204654	          0.37819014	          0.03809151	          0.00999999	          0.00999999	          0.02105965	          0.01000002	          0.01785124	          0.15604894	          0.00999999	          0.01482970	          0.00999999	          0.00999999	          0.27744854	          0.17886763	          0.01008578	
          0.02455867	         -4.58442534	         -1.45037500	          8.71172094	          0.04156504	          0.98190245	         -0.00194007	         29.61244740	         -1.25677255	         -9.22524527	        -10.46256583	          3.56188082	          0.20135871	        -15.85807011	         -3.49060724	         -4.77397701	        -11.75734581	          0.16769383	         41.31044225	        -12.25458986	          0.21077542	         -7.09760737	          0.02410607	          0.10189790	          0.01757641	          0.14342625	          0.21982837	          0.05740965	          0.09885534	          0.18766838	          0.09194937	          0.00999999	          0.00999999	          0.01000000	          0.00999999	          0.42485248	          0.05307658	          0.00999999	          0.00999999	          0.01748189	          0.00999999	          0.01481855	          0.12953822	          0.00999999	          0.05398766	          0.00999999	          0.00999999	          0.23031358	          0.14848030	          0.00999999	
          0.03683801	         -4.56255037	         -1.59285618	          8.64794306	          0.06224698	          0.98047187	         -0.00111083	         29.55546417	         -1.05814586	         -9.31843704	        -12.45495937	          3.02624908	          0.16419909	        -15.90434979	         -3.91600040	         -5.24453482	        -13.67466083	         -1.21158065	         42.47195879	        -11.76625880	          0.65980195	         -7.24576203	          0.04140030	          0.08458675	          0.01459041	          0.19257999	          0.28573644	          0.05314692	          0.08206108	          0.20714713	          0.07632834	          0.00999999	          0.08721743	          0.00999999	          0.00999999	          0.44545237	          0.09417457	          0.00999999	          0.00999999	          0.01451194	          0.07792043	          0.01861449	          0.10753133	          0.00999999	          0.09398200	          0.00999999	          0.00999999	          0.19118624	          0.12325540	          0.00999999	
          0.04911734	         -4.52737559	         -1.72629374	          8.55606817	          0.08254912	          0.97972562	         -0.00020203	         29.54752085	         -0.86039636	         -9.37576928	        -14.57766663	          2.83714745	          0.12052198	        -15.51215426	         -4.36858767	         -5.74964178	        -16.33799175	         -2.57822336	         43.04243760	        -11.33588427	          1.09967302	         -7.36199323	          0.03436693	          0.07021654	          0.01211168	          0.21577070	          0.29593542	          0.04861815	          0.06811995	          0.21843861	          0.06336113	          0.00999999	          0.19312107	          0.00999999	          0.00999999	          0.44545745	          0.10979249	          0.00999999	          0.00999999	          0.01204654	          0.15045683	          0.01545219	          0.08926313	          0.00999999	          0.08014237	          0.00999999	          0.00999999	          0.15870614	          0.10231588	          0.00999999	
